# AST/ASF file generated using VICON BodyLanguage
# -----------------------------------------------
:version 1.10
:name VICON
:units
  mass 1.0
  length 0.45
  angle deg
:documentation
   .ast/.asf automatically generated from VICON data using
   VICON BodyBuilder and BodyLanguage model FoxedUp or BRILLIANT.MOD
:root
   order TX TY TZ RX RY RZ
   axis XYZ
   position 0 0 0  
   orientation 0 0 0 
:bonedata
  begin
     id 1 
     name lhipjoint
     direction 0.692814 -0.645514 0.321437 
     length 2.38754 
     axis 0 0 0  XYZ
  end
  begin
     id 2 
     name lfemur
     direction 0.34202 -0.939693 0  
     length 6.41921  
     axis 0 0 20  XYZ
    dof rx ry rz
    limits (-160.0 20.0)
           (-70.0 70.0)
           (-60.0 70.0)
  end
  begin
     id 3 
     name ltibia
     direction 0.34202 -0.939693 0   
     length 6.98247   
     axis 0 0 20   XYZ
    dof rx
    limits (-10.0 170.0)
  end
  begin
     id 4 
     name lfoot
     direction 0.0947186 -0.260237 0.960888   
     length 1.83034   
     axis -90 7.62852e-016 20   XYZ
    dof rx rz
    limits (-45.0 90.0)
           (-70.0 20.0)
  end
  begin
     id 5 
     name ltoes
     direction 1.53538e-011 -4.21952e-011 1   
     length 0.920499   
     axis -90 7.62852e-016 20   XYZ
    dof rx
    limits (-90.0 20.0)
  end
  begin
     id 6 
     name rhipjoint
     direction -0.631686 -0.693949 0.345555   
     length 2.2209  
     axis 0 0 0  XYZ 
  end
  begin
     id 7 
     name rfemur
     direction -0.34202 -0.939693 0   
     length 6.49542   
     axis 0 0 -20   XYZ
    dof rx ry rz
    limits (-160.0 20.0)
           (-70.0 70.0)
           (-70.0 60.0)
  end
  begin
     id 8 
     name rtibia
     direction -0.34202 -0.939693 0   
     length 7.21712   
     axis 0 0 -20   XYZ
    dof rx
    limits (-10.0 170.0)
 end
 begin
     id 9 
     name rfoot
     direction -0.0825378 -0.226771 0.970444   
     length 1.89724  
     axis -90 -7.62852e-016 -20   XYZ
    dof rx rz
    limits (-45.0 90.0)
           (-20.0 70.0)
  end
  begin
     id 10 
     name rtoes
     direction -1.53515e-011 -4.22016e-011 1   
     length 0.955868   
     axis -90 -7.62852e-016 -20   XYZ
    dof rx
    limits (-90.0 20.0)
  end
  begin
     id 11 
     name lowerback
     direction -0.0104711 0.984802 -0.173368   
     length 1.84931   
     axis 0 0 0   XYZ
    dof rx ry rz
    limits (-20.0 45.0)
           (-30.0 30.0)
           (-30.0 30.0)
  end
  begin
     id 12 
     name upperback
     direction -0.00286433 0.999996 -0.000382853   
     length 1.85768   
     axis 0 0 0   XYZ
    dof rx ry rz
    limits (-20.0 45.0)
           (-30.0 30.0)
           (-30.0 30.0)
  end
  begin
     id 13 
     name thorax
     direction 0.00167534 0.996793 0.0800069   
     length 1.92   
     axis 0 0 0   XYZ
    dof rx ry rz
    limits (-20.0 45.0)
           (-30.0 30.0)
           (-30.0 30.0)
  end
  begin
     id 14 
     name lowerneck
     direction -0.0672491 0.995415 0.068018   
     length 1.58923   
     axis 0 0 0   XYZ
    dof rx ry rz
    limits (-20.0 45.0)
           (-30.0 30.0)
           (-30.0 30.0)
  end
  begin
     id 15 
     name upperneck
     direction 0.0958019 0.982476 -0.159884   
     length 1.60189   
     axis 0 0 0   XYZ
    dof rx ry rz
    limits (-20.0 45.0)
           (-30.0 30.0)
           (-30.0 30.0)
  end
  begin
     id 16
     name head
     direction 0.032989 0.997338 -0.0650226  
     length 1.61681  
     axis 0 0 0   XYZ
    dof rx ry rz
    limits (-20.0 45.0)
           (-30.0 30.0)
           (-30.0 30.0)
  end
  begin
     id 17 
     name lclavicle
     direction 0.954279 0.298875 -0.00496069  
     length 2.99449  
     axis 0 0 0   XYZ
    dof ry rz
    limits (-20.0 10.0)
           (0.0 20.0)
  end
  begin
     id 18 
     name lhumerus
     direction 1 -4.48985e-011 -4.2057e-027   
     length 4.79185   
     axis 180 -30 -90   XYZ
    dof rx ry rz
    limits (-60.0 90.0)
           (-90.0 90.0)
           (-90.0 90.0)
  end
  begin
     id 19
     name lradius
     direction 1 -4.48945e-011 1.15441e-028   
     length 2.65553   
     axis 180 -30 -90   XYZ
    dof rx
    limits (-10.0 170.0)
  end
  begin
     id 20
     name lwrist
     direction 1 -4.4899e-011 4.8894e-028   
     length 1.32777   
     axis -2.56392e-016 90 90   XYZ
    dof ry
    limits (-180.0 0.0)
 end
  begin
     id 21 
     name lhand
     direction 1 -4.48908e-011 9.7788e-028   
     length 0.743904   
     axis -6.23971e-016 90 90   XYZ
    dof rx rz
    limits (-90.0 90.0)
           (-45.0 45.0)
  end
  begin
     id 22 
     name lfingers
     direction 1 -4.49068e-011 1.95576e-027   
     length 0.599754   
     axis -1.24794e-015 90 90   XYZ
    dof rx
    limits (0.0 90.0)
  end
  begin
     id 23
     name lthumb
     direction 0.707107 -6.34883e-011 0.707107   
     length 0.861131   
     axis -90 45 2.85299e-015   XYZ
    dof rx rz
    limits (-45.0 45.0)
           (-45.0 45.0)
  end
  begin
     id 24 
     name rclavicle
     direction -0.957921 0.286916 0.00811568   
     length 3.06817  
     axis 0 0 0   XYZ 
    dof ry rz
    limits (-10.0 20.0)
           (-20.0 0.0)
  end
  begin
     id 25 
     name rhumerus
     direction -1 -4.48971e-011 -3.07942e-027  
     length 4.77254   
     axis 180 30 90   XYZ
    dof rx ry rz
    limits (-90.0 60.0)
           (-90.0 90.0)
           (-90.0 90.0)
  end
  begin
     id 26 
     name rradius
     direction -1 -4.48957e-011 -9.6815e-028   
     length 2.75995   
     axis 180 30 90   XYZ
    dof rx
    limits (-10.0 170.0)
  end
  begin
     id 27 
     name rwrist
     direction -1 -4.48979e-011 4.8894e-028   
     length 1.37997   
     axis -2.56392e-016 -90 -90   XYZ
    dof ry
    limits (-180.0 0.0)
  end
  begin
     id 28
     name rhand
     direction -1 -4.48906e-011 9.7788e-028   
     length 0.701619   
     axis -6.23971e-016 -90 -90   XYZ
    dof rx rz
    limits (-90.0 90.0)
           (-45.0 45.0)
  end
  begin
     id 29
     name rfingers
     direction -1 -4.49018e-011 1.95576e-027   
     length 0.565663   
     axis -1.24794e-015 -90 -90   XYZ
    dof rx
    limits (0.0 90.0)
  end
  begin
     id 30
     name rthumb
     direction -0.707107 -6.34881e-011 0.707107   
     length 0.812183   
     axis -90 -45 -2.85299e-015   XYZ
    dof rx rz
    limits (-45.0 45.0)
           (-45.0 45.0)
  end
:hierarchy
  begin
    root lhipjoint rhipjoint lowerback
    lhipjoint lfemur
    lfemur ltibia
    ltibia lfoot
    lfoot ltoes
    rhipjoint rfemur
    rfemur rtibia
    rtibia rfoot
    rfoot rtoes
    lowerback upperback
    upperback thorax
    thorax lowerneck lclavicle rclavicle
    lowerneck upperneck
    upperneck head
    lclavicle lhumerus
    lhumerus lradius
    lradius lwrist
    lwrist lhand lthumb
    lhand lfingers
    rclavicle rhumerus
    rhumerus rradius
    rradius rwrist
    rwrist rhand rthumb
    rhand rfingers
  end

#!OML:ASF F:\VICON\USERDATA\INSTALL\rory3\rory3.ASF
:FULLY-SPECIFIED
:DEGREES
795
root 0.952814 15.1463 -1.1318 4.11022 6.2212 -0.749466
lowerback 20.2562 0.090207 -2.40267
upperback -3.14429 -0.707818 -1.42992
thorax -15.0595 -0.196477 -0.02904
lowerneck -1.31489 -4.34753 -12.2507
upperneck 16.5908 -7.41688 14.8855
head 6.16979 -3.43921 6.42519
rclavicle -4.37326e-015 3.97569e-015
rhumerus -85.7397 15.5533 -65.6572
rradius 133.107
rwrist -42.8468
rhand 33.955 9.37584
rfingers 7.12502
rthumb 57.2232 -7.02273
lclavicle -4.37326e-015 3.97569e-015
lhumerus -85.851 -23.2401 65.1986
lradius 133.176
lwrist 77.8827
lhand 18.4139 36.699
lfingers 7.12502
lthumb 43.0548 60.9255
rfemur -25.3372 -3.82973 13.4354
rtibia 47.7403
rfoot -20.6276 -9.09178
rtoes -21.1021
lfemur -29.0596 2.94442 -19.4282
ltibia 48.5364
lfoot -16.776 -7.43004
ltoes -4.12428
796
root 0.946066 15.1643 -1.12316 4.23652 5.9873 -0.730907
lowerback 19.969 0.0508366 -2.26214
upperback -3.17957 -0.715592 -1.43335
thorax -14.93 -0.213542 -0.110742
lowerneck -0.31236 -4.22885 -12.3946
upperneck 15.9329 -7.30395 15.1002
head 5.78201 -3.43016 6.53871
rclavicle -1.00386e-014 -1.03368e-014
rhumerus -85.6024 13.7039 -65.2393
rradius 132.791
rwrist -43.9915
rhand 34.2899 9.33744
rfingers 7.12502
rthumb 57.5169 -6.80971
lclavicle -1.00386e-014 -1.03368e-014
lhumerus -85.8766 -21.0319 64.4744
lradius 132.989
lwrist 78.5605
lhand 19.0715 37.0834
lfingers 7.12502
lthumb 43.6691 61.0886
rfemur -25.3242 -3.75688 13.4522
rtibia 47.466
rfoot -20.6155 -8.9271
rtoes -20.9176
lfemur -28.9327 3.17428 -19.4129
ltibia 48.2178
lfoot -16.658 -7.48527
ltoes -3.81932
797
root 0.936757 15.1774 -1.11805 4.27101 5.7023 -0.670045
lowerback 19.7936 0.0577782 -2.26284
upperback -3.15501 -0.69819 -1.42418
thorax -14.7954 -0.206281 -0.105129
lowerneck 0.550539 -4.1512 -12.4872
upperneck 15.2858 -7.23312 15.276
head 5.42862 -3.43564 6.62489
rclavicle -8.84592e-015 -1.51076e-014
rhumerus -85.0513 12.1715 -64.9433
rradius 132.303
rwrist -45.0538
rhand 34.7461 9.30961
rfingers 7.12502
rthumb 57.9158 -6.48711
lclavicle -8.84592e-015 -1.51076e-014
lhumerus -85.5818 -19.0563 63.9556
lradius 132.522
lwrist 79.4025
lhand 19.3034 37.5825
lfingers 7.12502
lthumb 43.8856 61.5079
rfemur -25.26 -3.6583 13.4266
rtibia 47.2126
rfoot -20.525 -8.77368
rtoes -20.9363
lfemur -28.7091 3.43696 -19.4251
ltibia 47.9051
lfoot -16.5386 -7.55902
ltoes -3.32674
798
root 0.924174 15.1886 -1.11749 4.26686 5.38125 -0.690368
lowerback 19.5221 0.0952491 -2.29004
upperback -2.99942 -0.631358 -1.35879
thorax -14.4472 -0.173253 -0.0348012
lowerneck 1.28209 -4.13189 -12.5905
upperneck 14.5593 -7.21929 15.4373
head 5.08558 -3.46647 6.70113
rclavicle 1.66979e-014 2.62396e-014
rhumerus -83.9447 10.9407 -64.7717
rradius 131.684
rwrist -46.0072
rhand 35.1073 9.29646
rfingers 7.12502
rthumb 58.2306 -6.21619
lclavicle 1.66979e-014 2.62396e-014
lhumerus -84.7578 -17.3854 63.7687
lradius 131.891
lwrist 80.5689
lhand 18.6456 37.9893
lfingers 7.12502
lthumb 43.2713 62.1387
rfemur -25.2193 -3.52465 13.5081
rtibia 46.989
rfoot -20.3942 -8.62835
rtoes -21.0913
lfemur -28.4952 3.77388 -19.3345
ltibia 47.6264
lfoot -16.4813 -7.64829
ltoes -3.05378
799
root 0.913606 15.2023 -1.11906 4.29319 5.04434 -0.717485
lowerback 18.892 0.137787 -2.31499
upperback -2.63306 -0.537751 -1.28519
thorax -13.6405 -0.132716 0.0377112
lowerneck 1.82553 -4.15451 -12.7243
upperneck 13.7858 -7.24099 15.6159
head 4.77072 -3.50877 6.78281
rclavicle -3.57812e-015 -2.38542e-015
rhumerus -82.3433 9.9183 -64.8547
rradius 130.988
rwrist -46.7323
rhand 35.6101 9.40895
rfingers 7.12502
rthumb 58.6674 -5.69814
lclavicle -3.57812e-015 -2.38542e-015
lhumerus -83.368 -15.9216 63.8269
lradius 131.243
lwrist 81.5104
lhand 19.0654 38.3754
lfingers 7.12502
lthumb 43.6634 62.3826
rfemur -25.243 -3.39055 13.5808
rtibia 46.8071
rfoot -20.2465 -8.46095
rtoes -21.0733
lfemur -28.351 4.08883 -19.2547
ltibia 47.3933
lfoot -16.4483 -7.68141
ltoes -3.03094
800
root 0.903867 15.2108 -1.12578 4.3094 4.75344 -0.740483
lowerback 18.309 0.18836 -2.27469
upperback -2.28854 -0.422704 -1.21962
thorax -12.8968 -0.0871664 0.0580783
lowerneck 2.38504 -4.20353 -12.9479
upperneck 13.1507 -7.31437 15.7994
head 4.50822 -3.5798 6.88304
rclavicle -1.2424e-014 -1.43125e-014
rhumerus -80.6747 9.23528 -65.2701
rradius 130.263
rwrist -47.227
rhand 36.5373 9.60787
rfingers 7.12502
rthumb 59.4682 -4.71889
lclavicle -1.2424e-014 -1.43125e-014
lhumerus -81.7862 -14.9244 64.1311
lradius 130.574
lwrist 82.2882
lhand 21.1256 38.1361
lfingers 7.12502
lthumb 45.5821 61.4026
rfemur -25.2996 -3.29456 13.6419
rtibia 46.6813
rfoot -20.0978 -8.30413
rtoes -21.2262
lfemur -28.2722 4.32995 -19.1889
ltibia 47.2229
lfoot -16.4107 -7.66341
ltoes -3.12405
801
root 0.893939 15.2135 -1.13614 4.23885 4.45397 -0.701135
lowerback 18.0444 0.258551 -2.24789
upperback -2.06869 -0.307351 -1.2117
thorax -12.4902 -0.0393816 0.0211973
lowerneck 3.17666 -4.29031 -13.2544
upperneck 12.605 -7.48285 16.0539
head 4.25431 -3.70796 7.02541
rclavicle 1.35174e-014 -7.95139e-015
rhumerus -78.9787 9.05123 -66.0815
rradius 129.316
rwrist -47.8081
rhand 37.4789 9.95584
rfingers 7.12502
rthumb 60.2744 -3.53309
lclavicle 1.35174e-014 -7.95139e-015
lhumerus -80.2628 -14.4665 64.8908
lradius 129.792
lwrist 82.8548
lhand 22.9821 36.9999
lfingers 7.12502
lthumb 47.3023 59.5318
rfemur -25.2975 -3.23478 13.6248
rtibia 46.5954
rfoot -20.0071 -8.13378
rtoes -21.6192
lfemur -28.1248 4.5323 -19.1842
ltibia 47.1029
lfoot -16.3426 -7.66772
ltoes -3.1538
802
root 0.883971 15.2137 -1.14723 4.0998 4.16244 -0.636728
lowerback 17.8508 0.313964 -2.27967
upperback -1.84338 -0.228835 -1.21661
thorax -12.1204 -0.00464764 0.0146071
lowerneck 4.14994 -4.41554 -13.6515
upperneck 12.0397 -7.73795 16.4183
head 3.98666 -3.8884 7.22357
rclavicle 2.38542e-015 -1.51076e-014
rhumerus -77.0089 9.38927 -67.1591
rradius 128.209
rwrist -48.7499
rhand 38.2828 10.2212
rfingers 7.12502
rthumb 60.9571 -2.51353
lclavicle 2.38542e-015 -1.51076e-014
lhumerus -78.7059 -14.4006 65.9283
lradius 128.982
lwrist 83.3363
lhand 23.4158 37.1619
lfingers 7.12502
lthumb 47.7028 59.5122
rfemur -25.2469 -3.22692 13.5736
rtibia 46.5492
rfoot -19.9572 -7.88981
rtoes -21.9068
lfemur -27.9145 4.67167 -19.1951
ltibia 47.0243
lfoot -16.2844 -7.6407
ltoes -3.12094
803
root 0.874262 15.216 -1.15848 3.85038 3.86013 -0.705456
lowerback 17.6237 0.37536 -2.19648
upperback -1.56182 -0.109154 -1.17205
thorax -11.6697 0.0431737 -0.0125825
lowerneck 5.15755 -4.54255 -14.0861
upperneck 11.5262 -8.00413 16.7221
head 3.73386 -4.07985 7.41257
rclavicle 4.17448e-015 -1.03368e-014
rhumerus -74.9096 10.1853 -68.3928
rradius 127.037
rwrist -49.8706
rhand 39.1278 10.5048
rfingers 7.12502
rthumb 61.6683 -1.39611
lclavicle 4.17448e-015 -1.03368e-014
lhumerus -76.8627 -14.6889 66.7063
lradius 128.212
lwrist 84.6544
lhand 23.2062 39.7906
lfingers 7.12502
lthumb 47.5094 62.2292
rfemur -25.1037 -3.1541 13.6683
rtibia 46.5348
rfoot -19.9266 -7.61701
rtoes -21.8821
lfemur -27.604 4.8898 -19.0611
ltibia 46.9596
lfoot -16.3152 -7.56639
ltoes -3.6646
804
root 0.865725 15.2151 -1.17106 3.51746 3.5679 -0.774663
lowerback 17.4909 0.424111 -2.07183
upperback -1.30529 -0.000806849 -1.11381
thorax -11.304 0.084974 -0.0452561
lowerneck 6.17989 -4.61585 -14.5435
upperneck 11.1118 -8.20435 16.8967
head 3.49746 -4.243 7.56995
rclavicle 1.49089e-015 7.95139e-015
rhumerus -72.8728 11.522 -69.6669
rradius 125.911
rwrist -51.171
rhand 40.3248 10.6892
rfingers 7.12502
rthumb 62.6639 0.0471848
lclavicle 1.49089e-015 7.95139e-015
lhumerus -74.9907 -15.3224 67.6558
lradius 127.357
lwrist 86.1548
lhand 22.8124 42.0098
lfingers 7.12502
lthumb 47.1454 64.6117
rfemur -24.8842 -3.06793 13.7555
rtibia 46.5587
rfoot -19.926 -7.35487
rtoes -21.9432
lfemur -27.218 5.07408 -18.9199
ltibia 46.9094
lfoot -16.331 -7.43468
ltoes -4.08821
805
root 0.857914 15.2088 -1.18231 3.16065 3.28765 -0.55303
lowerback 17.4128 0.472085 -2.21941
upperback -1.03201 0.0374719 -1.14182
thorax -10.9527 0.107317 0.000985122
lowerneck 7.09372 -4.65429 -14.8979
upperneck 10.8269 -8.35711 17.0126
head 3.3056 -4.37361 7.69203
rclavicle -2.04748e-014 0
rhumerus -70.7445 13.2795 -71.0093
rradius 124.872
rwrist -52.6114
rhand 41.7883 10.4082
rfingers 7.12502
rthumb 63.86 1.44072
lclavicle -2.04748e-014 0
lhumerus -73.2153 -16.3165 69.0096
lradius 126.372
lwrist 87.1481
lhand 23.0921 42.3377
lfingers 7.12502
lthumb 47.404 64.8239
rfemur -24.6385 -3.05858 13.5096
rtibia 46.6364
rfoot -19.8992 -7.09174
rtoes -22.0392
lfemur -26.7815 5.14892 -19.1052
ltibia 46.8692
lfoot -16.382 -7.26546
ltoes -3.8856
806
root 0.847247 15.2012 -1.19472 2.81002 3.0552 -0.400278
lowerback 17.3173 0.486499 -2.28256
upperback -0.738813 0.0482932 -1.19146
thorax -10.5702 0.110315 -0.0165398
lowerneck 7.8531 -4.70116 -15.0842
upperneck 10.6793 -8.50586 17.0339
head 3.1705 -4.48926 7.75074
rclavicle -9.0447e-015 2.06736e-014
rhumerus -68.6075 15.3028 -72.4792
rradius 123.886
rwrist -53.8189
rhand 42.4735 9.90421
rfingers 7.12502
rthumb 64.4111 1.77646
lclavicle -9.0447e-015 2.06736e-014
lhumerus -71.4707 -17.7805 70.3173
lradius 125.41
lwrist 88.1611
lhand 24.5518 42.5209
lfingers 7.12502
lthumb 48.7494 64.3763
rfemur -24.4336 -2.98566 13.3596
rtibia 46.7817
rfoot -19.8926 -7.00999
rtoes -22.2834
lfemur -26.3852 5.19691 -19.2051
ltibia 46.8182
lfoot -16.4228 -7.0845
ltoes -3.76355
807
root 0.834209 15.1948 -1.2053 2.45526 2.82454 -0.369723
lowerback 17.1487 0.487324 -2.23303
upperback -0.422297 0.0693944 -1.22449
thorax -10.1218 0.1121 -0.0815189
lowerneck 8.44996 -4.76002 -15.2511
upperneck 10.6866 -8.66624 17.0128
head 3.10862 -4.60194 7.78768
rclavicle -6.36111e-015 -8.74653e-015
rhumerus -66.6049 17.4738 -73.7865
rradius 122.97
rwrist -54.7036
rhand 43.1716 9.36682
rfingers 7.12502
rthumb 64.9664 2.13409
lclavicle -6.36111e-015 -8.74653e-015
lhumerus -69.6994 -19.6099 71.4545
lradius 124.518
lwrist 89.2495
lhand 25.5253 43.2189
lfingers 7.12502
lthumb 49.643 64.6271
rfemur -24.2513 -2.87566 13.357
rtibia 46.975
rfoot -19.9875 -6.8333
rtoes -22.0027
lfemur -25.9781 5.27513 -19.1461
ltibia 46.7461
lfoot -16.397 -6.9713
ltoes -4.0195
808
root 0.820097 15.1866 -1.21076 2.02882 2.46084 0.0532859
lowerback 16.92 0.573868 -2.66795
upperback -0.0446908 0.104683 -1.3291
thorax -9.5764 0.14145 0.0486398
lowerneck 8.94948 -4.78327 -15.4428
upperneck 10.7865 -8.77498 16.9379
head 3.08131 -4.6856 7.81025
rclavicle -8.74653e-015 -6.36111e-015
rhumerus -64.7272 19.8896 -74.9245
rradius 122.195
rwrist -55.2151
rhand 44.3814 9.21569
rfingers 7.12502
rthumb 65.912 3.63428
lclavicle -8.74653e-015 -6.36111e-015
lhumerus -67.9683 -21.5256 72.5298
lradius 123.693
lwrist 90.1579
lhand 25.7373 44.5797
lfingers 7.12502
lthumb 49.8372 65.8875
rfemur -24.0097 -2.70294 12.9179
rtibia 47.1991
rfoot -20.0841 -6.62283
rtoes -21.9144
lfemur -25.3781 5.44892 -19.5144
ltibia 46.5936
lfoot -16.3878 -6.82889
ltoes -4.48464
